<mxfile host="app.diagrams.net" agent="Mozilla/5.0 (Windows NT 10.0; Win64; x64) AppleWebKit/537.36 (KHTML, like Gecko) Chrome/137.0.0.0 Safari/537.36" version="27.1.5">
  <diagram name="Page-1" id="RXhMYFumCGfDKtu52oWE">
    <mxGraphModel grid="1" page="1" gridSize="10" guides="1" tooltips="1" connect="1" arrows="1" fold="1" pageScale="1" pageWidth="1169" pageHeight="827" math="0" shadow="0">
      <root>
        <mxCell id="0" />
        <mxCell id="1" parent="0" />
        <mxCell id="rrn8c3ytAusDX3MNrkSy-1" value="Data Flow Diagram" style="text;html=1;align=center;verticalAlign=middle;whiteSpace=wrap;rounded=0;fontSize=32;fontStyle=1" vertex="1" parent="1">
          <mxGeometry x="30" y="50" width="410" height="30" as="geometry" />
        </mxCell>
        <mxCell id="rrn8c3ytAusDX3MNrkSy-3" value="&lt;font style=&quot;font-size: 24px;&quot;&gt;Sources&lt;/font&gt;" style="rounded=1;whiteSpace=wrap;html=1;strokeColor=none;" vertex="1" parent="1">
          <mxGeometry x="100" y="180" width="110" height="30" as="geometry" />
        </mxCell>
        <mxCell id="rrn8c3ytAusDX3MNrkSy-12" value="" style="rounded=1;whiteSpace=wrap;html=1;fillColor=#ffe6cc;dashed=1;strokeColor=#d79b00;shadow=0;glass=0;comic=0;labelBackgroundColor=none;textShadow=0;fillStyle=hatch;" vertex="1" parent="1">
          <mxGeometry x="320" y="240" width="180" height="320" as="geometry" />
        </mxCell>
        <mxCell id="rrn8c3ytAusDX3MNrkSy-13" value="&lt;font style=&quot;font-size: 20px;&quot;&gt;Bronze Layer&lt;/font&gt;" style="rounded=1;whiteSpace=wrap;html=1;fillColor=#ffe6cc;strokeColor=#d79b00;" vertex="1" parent="1">
          <mxGeometry x="320" y="180" width="180" height="45" as="geometry" />
        </mxCell>
        <mxCell id="19QtIrBYNtAfiQH8ZazS-9" style="edgeStyle=orthogonalEdgeStyle;rounded=0;orthogonalLoop=1;jettySize=auto;html=1;exitX=1;exitY=0.5;exitDx=0;exitDy=0;entryX=0;entryY=0.5;entryDx=0;entryDy=0;" edge="1" parent="1" source="rrn8c3ytAusDX3MNrkSy-14" target="19QtIrBYNtAfiQH8ZazS-3">
          <mxGeometry relative="1" as="geometry" />
        </mxCell>
        <mxCell id="rrn8c3ytAusDX3MNrkSy-14" value="&lt;font style=&quot;font-size: 16px;&quot;&gt;crm_sales_details&lt;/font&gt;" style="rounded=1;whiteSpace=wrap;html=1;fillColor=#ffe6cc;strokeColor=#d79b00;" vertex="1" parent="1">
          <mxGeometry x="330" y="270" width="160" height="36" as="geometry" />
        </mxCell>
        <mxCell id="19QtIrBYNtAfiQH8ZazS-10" style="edgeStyle=orthogonalEdgeStyle;rounded=0;orthogonalLoop=1;jettySize=auto;html=1;exitX=1;exitY=0.5;exitDx=0;exitDy=0;entryX=0;entryY=0.5;entryDx=0;entryDy=0;" edge="1" parent="1" source="rrn8c3ytAusDX3MNrkSy-15" target="19QtIrBYNtAfiQH8ZazS-4">
          <mxGeometry relative="1" as="geometry" />
        </mxCell>
        <mxCell id="rrn8c3ytAusDX3MNrkSy-15" value="&lt;font style=&quot;font-size: 16px;&quot;&gt;crm_cust_info&lt;/font&gt;" style="rounded=1;whiteSpace=wrap;html=1;fillColor=#ffe6cc;strokeColor=#d79b00;" vertex="1" parent="1">
          <mxGeometry x="330" y="320" width="160" height="36" as="geometry" />
        </mxCell>
        <mxCell id="19QtIrBYNtAfiQH8ZazS-11" style="edgeStyle=orthogonalEdgeStyle;rounded=0;orthogonalLoop=1;jettySize=auto;html=1;exitX=1;exitY=0.5;exitDx=0;exitDy=0;entryX=0;entryY=0.5;entryDx=0;entryDy=0;" edge="1" parent="1" source="rrn8c3ytAusDX3MNrkSy-16" target="19QtIrBYNtAfiQH8ZazS-5">
          <mxGeometry relative="1" as="geometry" />
        </mxCell>
        <mxCell id="rrn8c3ytAusDX3MNrkSy-16" value="&lt;font style=&quot;font-size: 16px;&quot;&gt;crm_prod_info&lt;/font&gt;" style="rounded=1;whiteSpace=wrap;html=1;fillColor=#ffe6cc;strokeColor=#d79b00;" vertex="1" parent="1">
          <mxGeometry x="330" y="364" width="160" height="36" as="geometry" />
        </mxCell>
        <mxCell id="19QtIrBYNtAfiQH8ZazS-12" style="edgeStyle=orthogonalEdgeStyle;rounded=0;orthogonalLoop=1;jettySize=auto;html=1;exitX=1;exitY=0.5;exitDx=0;exitDy=0;" edge="1" parent="1" source="rrn8c3ytAusDX3MNrkSy-17" target="19QtIrBYNtAfiQH8ZazS-6">
          <mxGeometry relative="1" as="geometry" />
        </mxCell>
        <mxCell id="rrn8c3ytAusDX3MNrkSy-17" value="&lt;font style=&quot;font-size: 16px;&quot;&gt;erp_cust_az12&lt;/font&gt;" style="rounded=1;whiteSpace=wrap;html=1;fillColor=#ffe6cc;strokeColor=#d79b00;" vertex="1" parent="1">
          <mxGeometry x="330" y="410" width="160" height="36" as="geometry" />
        </mxCell>
        <mxCell id="19QtIrBYNtAfiQH8ZazS-13" style="edgeStyle=orthogonalEdgeStyle;rounded=0;orthogonalLoop=1;jettySize=auto;html=1;exitX=1;exitY=0.5;exitDx=0;exitDy=0;entryX=0;entryY=0.5;entryDx=0;entryDy=0;" edge="1" parent="1" source="rrn8c3ytAusDX3MNrkSy-18" target="19QtIrBYNtAfiQH8ZazS-7">
          <mxGeometry relative="1" as="geometry" />
        </mxCell>
        <mxCell id="rrn8c3ytAusDX3MNrkSy-18" value="&lt;font style=&quot;font-size: 16px;&quot;&gt;erp_loc_a101&lt;/font&gt;" style="rounded=1;whiteSpace=wrap;html=1;fillColor=#ffe6cc;strokeColor=#d79b00;" vertex="1" parent="1">
          <mxGeometry x="330" y="456" width="160" height="36" as="geometry" />
        </mxCell>
        <mxCell id="19QtIrBYNtAfiQH8ZazS-14" style="edgeStyle=orthogonalEdgeStyle;rounded=0;orthogonalLoop=1;jettySize=auto;html=1;exitX=1;exitY=0.5;exitDx=0;exitDy=0;" edge="1" parent="1" source="rrn8c3ytAusDX3MNrkSy-19" target="19QtIrBYNtAfiQH8ZazS-8">
          <mxGeometry relative="1" as="geometry" />
        </mxCell>
        <mxCell id="rrn8c3ytAusDX3MNrkSy-19" value="&lt;font style=&quot;font-size: 16px;&quot;&gt;erp_px_cat_g1v2&lt;/font&gt;" style="rounded=1;whiteSpace=wrap;html=1;fillColor=#ffe6cc;strokeColor=#d79b00;" vertex="1" parent="1">
          <mxGeometry x="330" y="500" width="160" height="36" as="geometry" />
        </mxCell>
        <mxCell id="rrn8c3ytAusDX3MNrkSy-2" value="" style="rounded=0;whiteSpace=wrap;html=1;fillColor=none;dashed=1;movable=1;resizable=1;rotatable=1;deletable=1;editable=1;locked=0;connectable=1;" vertex="1" parent="1">
          <mxGeometry x="79.5" y="200" width="150" height="360" as="geometry" />
        </mxCell>
        <mxCell id="rrn8c3ytAusDX3MNrkSy-23" value="" style="group" vertex="1" connectable="0" parent="1">
          <mxGeometry x="120" y="306" width="60" height="74" as="geometry" />
        </mxCell>
        <mxCell id="rrn8c3ytAusDX3MNrkSy-4" value="" style="image;aspect=fixed;html=1;points=[];align=center;fontSize=12;image=img/lib/azure2/general/Folder_Blank.svg;" vertex="1" parent="rrn8c3ytAusDX3MNrkSy-23">
          <mxGeometry width="56.733333333333334" height="46.04444444444445" as="geometry" />
        </mxCell>
        <mxCell id="rrn8c3ytAusDX3MNrkSy-9" value="CRM" style="text;html=1;align=center;verticalAlign=middle;whiteSpace=wrap;rounded=0;fontSize=20;fontStyle=1" vertex="1" parent="rrn8c3ytAusDX3MNrkSy-23">
          <mxGeometry x="3.9130434782608696" y="49.33333333333333" width="52.17391304347826" height="24.666666666666664" as="geometry" />
        </mxCell>
        <mxCell id="rrn8c3ytAusDX3MNrkSy-24" value="" style="group" vertex="1" connectable="0" parent="1">
          <mxGeometry x="120" y="446" width="60" height="71" as="geometry" />
        </mxCell>
        <mxCell id="rrn8c3ytAusDX3MNrkSy-10" value="" style="image;aspect=fixed;html=1;points=[];align=center;fontSize=12;image=img/lib/azure2/general/Folder_Blank.svg;" vertex="1" parent="rrn8c3ytAusDX3MNrkSy-24">
          <mxGeometry width="54.43333333333333" height="44.177777777777784" as="geometry" />
        </mxCell>
        <mxCell id="rrn8c3ytAusDX3MNrkSy-11" value="ERP" style="text;html=1;align=center;verticalAlign=middle;whiteSpace=wrap;rounded=0;fontSize=20;fontStyle=1" vertex="1" parent="rrn8c3ytAusDX3MNrkSy-24">
          <mxGeometry x="3.9130434782608696" y="47.33333333333333" width="52.17391304347826" height="23.666666666666664" as="geometry" />
        </mxCell>
        <mxCell id="rrn8c3ytAusDX3MNrkSy-27" value="" style="edgeStyle=orthogonalEdgeStyle;rounded=0;orthogonalLoop=1;jettySize=auto;html=1;entryX=0;entryY=0.5;entryDx=0;entryDy=0;" edge="1" parent="1" source="rrn8c3ytAusDX3MNrkSy-4" target="rrn8c3ytAusDX3MNrkSy-14">
          <mxGeometry relative="1" as="geometry">
            <mxPoint x="245.0999999999999" y="329.02222222222224" as="targetPoint" />
          </mxGeometry>
        </mxCell>
        <mxCell id="rrn8c3ytAusDX3MNrkSy-28" style="edgeStyle=orthogonalEdgeStyle;rounded=0;orthogonalLoop=1;jettySize=auto;html=1;entryX=0;entryY=0.5;entryDx=0;entryDy=0;" edge="1" parent="1" source="rrn8c3ytAusDX3MNrkSy-4" target="rrn8c3ytAusDX3MNrkSy-15">
          <mxGeometry relative="1" as="geometry" />
        </mxCell>
        <mxCell id="rrn8c3ytAusDX3MNrkSy-29" style="edgeStyle=orthogonalEdgeStyle;rounded=0;orthogonalLoop=1;jettySize=auto;html=1;entryX=0;entryY=0.5;entryDx=0;entryDy=0;" edge="1" parent="1" source="rrn8c3ytAusDX3MNrkSy-4" target="rrn8c3ytAusDX3MNrkSy-16">
          <mxGeometry relative="1" as="geometry" />
        </mxCell>
        <mxCell id="rrn8c3ytAusDX3MNrkSy-30" style="edgeStyle=orthogonalEdgeStyle;rounded=0;orthogonalLoop=1;jettySize=auto;html=1;entryX=0;entryY=0.5;entryDx=0;entryDy=0;" edge="1" parent="1" source="rrn8c3ytAusDX3MNrkSy-10" target="rrn8c3ytAusDX3MNrkSy-17">
          <mxGeometry relative="1" as="geometry" />
        </mxCell>
        <mxCell id="rrn8c3ytAusDX3MNrkSy-31" style="edgeStyle=orthogonalEdgeStyle;rounded=0;orthogonalLoop=1;jettySize=auto;html=1;entryX=0;entryY=0.5;entryDx=0;entryDy=0;" edge="1" parent="1" source="rrn8c3ytAusDX3MNrkSy-10" target="rrn8c3ytAusDX3MNrkSy-18">
          <mxGeometry relative="1" as="geometry" />
        </mxCell>
        <mxCell id="rrn8c3ytAusDX3MNrkSy-32" style="edgeStyle=orthogonalEdgeStyle;rounded=0;orthogonalLoop=1;jettySize=auto;html=1;entryX=0;entryY=0.5;entryDx=0;entryDy=0;" edge="1" parent="1" source="rrn8c3ytAusDX3MNrkSy-10" target="rrn8c3ytAusDX3MNrkSy-19">
          <mxGeometry relative="1" as="geometry" />
        </mxCell>
        <mxCell id="19QtIrBYNtAfiQH8ZazS-1" value="" style="rounded=1;whiteSpace=wrap;html=1;fillColor=#f5f5f5;dashed=1;strokeColor=#666666;fontColor=#333333;labelBackgroundColor=none;labelBorderColor=none;textShadow=0;fillStyle=hatch;" vertex="1" parent="1">
          <mxGeometry x="560" y="240" width="180" height="320" as="geometry" />
        </mxCell>
        <mxCell id="19QtIrBYNtAfiQH8ZazS-2" value="&lt;font style=&quot;font-size: 20px;&quot;&gt;Silver Layer&lt;/font&gt;" style="rounded=1;whiteSpace=wrap;html=1;fillColor=#f5f5f5;strokeColor=#666666;fontColor=#333333;" vertex="1" parent="1">
          <mxGeometry x="560" y="180" width="180" height="45" as="geometry" />
        </mxCell>
        <mxCell id="19QtIrBYNtAfiQH8ZazS-3" value="&lt;font style=&quot;font-size: 16px;&quot;&gt;crm_sales_details&lt;/font&gt;" style="rounded=1;whiteSpace=wrap;html=1;fillColor=#f5f5f5;strokeColor=#666666;fontColor=#333333;" vertex="1" parent="1">
          <mxGeometry x="570" y="270" width="160" height="36" as="geometry" />
        </mxCell>
        <mxCell id="19QtIrBYNtAfiQH8ZazS-4" value="&lt;font style=&quot;font-size: 16px;&quot;&gt;crm_cust_info&lt;/font&gt;" style="rounded=1;whiteSpace=wrap;html=1;fillColor=#f5f5f5;strokeColor=#666666;fontColor=#333333;" vertex="1" parent="1">
          <mxGeometry x="570" y="320" width="160" height="36" as="geometry" />
        </mxCell>
        <mxCell id="19QtIrBYNtAfiQH8ZazS-5" value="&lt;font style=&quot;font-size: 16px;&quot;&gt;crm_prod_info&lt;/font&gt;" style="rounded=1;whiteSpace=wrap;html=1;fillColor=#f5f5f5;strokeColor=#666666;fontColor=#333333;" vertex="1" parent="1">
          <mxGeometry x="570" y="364" width="160" height="36" as="geometry" />
        </mxCell>
        <mxCell id="19QtIrBYNtAfiQH8ZazS-6" value="&lt;font style=&quot;font-size: 16px;&quot;&gt;erp_cust_az12&lt;/font&gt;" style="rounded=1;whiteSpace=wrap;html=1;fillColor=#f5f5f5;strokeColor=#666666;fontColor=#333333;" vertex="1" parent="1">
          <mxGeometry x="570" y="410" width="160" height="36" as="geometry" />
        </mxCell>
        <mxCell id="19QtIrBYNtAfiQH8ZazS-7" value="&lt;font style=&quot;font-size: 16px;&quot;&gt;erp_loc_a101&lt;/font&gt;" style="rounded=1;whiteSpace=wrap;html=1;fillColor=#f5f5f5;strokeColor=#666666;fontColor=#333333;" vertex="1" parent="1">
          <mxGeometry x="570" y="456" width="160" height="36" as="geometry" />
        </mxCell>
        <mxCell id="27zOLNCFcb7AHaVvfWIi-1" value="" style="rounded=1;whiteSpace=wrap;html=1;fillColor=#fff2cc;dashed=1;strokeColor=#d6b656;fillStyle=hatch;" vertex="1" parent="1">
          <mxGeometry x="810" y="240" width="180" height="320" as="geometry" />
        </mxCell>
        <mxCell id="19QtIrBYNtAfiQH8ZazS-8" value="&lt;font style=&quot;font-size: 16px;&quot;&gt;erp_px_cat_g1v2&lt;/font&gt;" style="rounded=1;whiteSpace=wrap;html=1;fillColor=#f5f5f5;strokeColor=#666666;fontColor=#333333;" vertex="1" parent="1">
          <mxGeometry x="570" y="500" width="160" height="36" as="geometry" />
        </mxCell>
        <mxCell id="27zOLNCFcb7AHaVvfWIi-2" value="&lt;font style=&quot;font-size: 20px;&quot;&gt;Gold Layer&lt;/font&gt;" style="rounded=1;whiteSpace=wrap;html=1;fillColor=#fff2cc;strokeColor=#d6b656;" vertex="1" parent="1">
          <mxGeometry x="810" y="180" width="180" height="45" as="geometry" />
        </mxCell>
        <mxCell id="27zOLNCFcb7AHaVvfWIi-3" value="&lt;font style=&quot;font-size: 16px;&quot;&gt;fact_sales&lt;/font&gt;" style="rounded=1;whiteSpace=wrap;html=1;fillColor=#fff2cc;strokeColor=#d6b656;" vertex="1" parent="1">
          <mxGeometry x="820" y="270" width="160" height="36" as="geometry" />
        </mxCell>
        <mxCell id="27zOLNCFcb7AHaVvfWIi-4" value="&lt;font style=&quot;font-size: 16px;&quot;&gt;dim_customers&lt;/font&gt;" style="rounded=1;whiteSpace=wrap;html=1;fillColor=#fff2cc;strokeColor=#d6b656;" vertex="1" parent="1">
          <mxGeometry x="820" y="356" width="160" height="36" as="geometry" />
        </mxCell>
        <mxCell id="27zOLNCFcb7AHaVvfWIi-5" value="&lt;font style=&quot;font-size: 16px;&quot;&gt;dim_products&lt;/font&gt;" style="rounded=1;whiteSpace=wrap;html=1;fillColor=#fff2cc;strokeColor=#d6b656;" vertex="1" parent="1">
          <mxGeometry x="820" y="440" width="160" height="36" as="geometry" />
        </mxCell>
        <mxCell id="27zOLNCFcb7AHaVvfWIi-12" value="" style="endArrow=classic;html=1;rounded=0;exitX=1;exitY=0.5;exitDx=0;exitDy=0;entryX=0;entryY=0;entryDx=0;entryDy=0;jumpStyle=gap;" edge="1" parent="1" source="19QtIrBYNtAfiQH8ZazS-4" target="27zOLNCFcb7AHaVvfWIi-4">
          <mxGeometry width="50" height="50" relative="1" as="geometry">
            <mxPoint x="750" y="410" as="sourcePoint" />
            <mxPoint x="800" y="360" as="targetPoint" />
          </mxGeometry>
        </mxCell>
        <mxCell id="27zOLNCFcb7AHaVvfWIi-13" value="" style="endArrow=classic;html=1;rounded=0;exitX=1;exitY=0.5;exitDx=0;exitDy=0;entryX=0;entryY=0.5;entryDx=0;entryDy=0;" edge="1" parent="1" source="19QtIrBYNtAfiQH8ZazS-3" target="27zOLNCFcb7AHaVvfWIi-3">
          <mxGeometry width="50" height="50" relative="1" as="geometry">
            <mxPoint x="790" y="340" as="sourcePoint" />
            <mxPoint x="880" y="405" as="targetPoint" />
          </mxGeometry>
        </mxCell>
        <mxCell id="27zOLNCFcb7AHaVvfWIi-14" value="" style="endArrow=classic;html=1;rounded=0;exitX=1;exitY=0.5;exitDx=0;exitDy=0;entryX=0;entryY=0.25;entryDx=0;entryDy=0;jumpStyle=gap;" edge="1" parent="1" source="19QtIrBYNtAfiQH8ZazS-6" target="27zOLNCFcb7AHaVvfWIi-4">
          <mxGeometry width="50" height="50" relative="1" as="geometry">
            <mxPoint x="750" y="410" as="sourcePoint" />
            <mxPoint x="840" y="475" as="targetPoint" />
          </mxGeometry>
        </mxCell>
        <mxCell id="27zOLNCFcb7AHaVvfWIi-15" value="" style="endArrow=classic;html=1;rounded=0;exitX=1;exitY=0.5;exitDx=0;exitDy=0;jumpStyle=gap;entryX=0;entryY=0.75;entryDx=0;entryDy=0;" edge="1" parent="1" source="19QtIrBYNtAfiQH8ZazS-7" target="27zOLNCFcb7AHaVvfWIi-4">
          <mxGeometry width="50" height="50" relative="1" as="geometry">
            <mxPoint x="780" y="515" as="sourcePoint" />
            <mxPoint x="820" y="410" as="targetPoint" />
          </mxGeometry>
        </mxCell>
        <mxCell id="27zOLNCFcb7AHaVvfWIi-16" value="" style="endArrow=classic;html=1;rounded=0;exitX=1;exitY=0.5;exitDx=0;exitDy=0;entryX=0;entryY=0.5;entryDx=0;entryDy=0;jumpStyle=gap;" edge="1" parent="1" source="19QtIrBYNtAfiQH8ZazS-5" target="27zOLNCFcb7AHaVvfWIi-5">
          <mxGeometry width="50" height="50" relative="1" as="geometry">
            <mxPoint x="820" y="564" as="sourcePoint" />
            <mxPoint x="820" y="440" as="targetPoint" />
          </mxGeometry>
        </mxCell>
        <mxCell id="27zOLNCFcb7AHaVvfWIi-17" value="" style="endArrow=classic;html=1;rounded=0;exitX=1;exitY=0.5;exitDx=0;exitDy=0;entryX=0;entryY=0.75;entryDx=0;entryDy=0;jumpStyle=gap;" edge="1" parent="1" source="19QtIrBYNtAfiQH8ZazS-8" target="27zOLNCFcb7AHaVvfWIi-5">
          <mxGeometry width="50" height="50" relative="1" as="geometry">
            <mxPoint x="800" y="554" as="sourcePoint" />
            <mxPoint x="890" y="490" as="targetPoint" />
          </mxGeometry>
        </mxCell>
      </root>
    </mxGraphModel>
  </diagram>
</mxfile>
